<?xml version="1.0" encoding="utf-8"?>
<!-- Generator: Adobe Illustrator 24.2.0, SVG Export Plug-In . SVG Version: 6.00 Build 0)  -->
<svg version="1.1" id="Layer_1" xmlns="http://www.w3.org/2000/svg" xmlns:xlink="http://www.w3.org/1999/xlink" x="0px" y="0px"
	 viewBox="0 0 361.28 81.86" style="enable-background:new 0 0 361.28 81.86;" xml:space="preserve">
<style type="text/css">
	.st0{stroke:#000000;stroke-miterlimit:10;}
</style>
<g>
	<path class="st0" d="M48.12,34.09c-1.42,0.61-2.87,1.16-4.27,1.83c-3.82,1.83-7.61,3.73-11.42,5.58
		c-5.85,2.85-11.72,5.66-17.57,8.53c-1.95,0.95-3.85,2.01-5.76,3.05c-1.32,0.72-2.39,0.78-3.69-0.06c0.73-0.44,1.31-0.86,1.95-1.15
		c6.18-2.81,12.41-5.5,18.54-8.41c6.68-3.17,13.28-6.55,19.92-9.84c0.68-0.34,1.34-0.76,2.05-0.98c2.22-0.7,3.43-2.45,4.53-4.78
		c-0.71-0.04-1.3-0.06-1.9-0.11c-2.48-0.22-4.96-0.38-7.42-0.72c-1.42-0.2-2.28-1.58-2.42-2.76c-0.12-1.07,0.5-2.55,1.27-3.35
		c3.6-3.77,8.12-5.83,12.98-7.1c1.61-0.42,3.19-0.12,4.13,1.5c0.74,1.29,0.69,2.64-0.09,4.04c-1.02,1.83-1.84,3.79-2.71,5.71
		c-0.1,0.23-0.01,0.55-0.01,0.93c3.53,0.07,6.81-0.61,9.97-2.14c5.88-2.86,11.82-5.59,17.73-8.38c6.21-2.93,12.41-5.87,18.62-8.78
		c0.74-0.35,1.52-0.68,2.31-0.78c0.49-0.06,1.03,0.34,1.55,0.53c-0.34,0.48-0.59,1.2-1.04,1.39c-3.24,1.42-6.56,2.66-9.79,4.11
		c-7.82,3.49-15.6,7.05-23.39,10.6c-0.84,0.38-1.66,0.82-2.49,1.23c0.06,0.23,0.12,0.45,0.18,0.68c1.94-0.19,3.9-0.27,5.82-0.59
		c6.46-1.07,12.94-2.07,19.36-3.38c5.85-1.2,11.64-2.74,17.44-4.19c4.02-1,8-2.14,12.02-3.14c0.84-0.21,1.76-0.03,2.64-0.03
		c0.06,0.17,0.12,0.35,0.17,0.52c-0.51,0.35-0.98,0.87-1.54,1.02c-6.15,1.67-12.31,3.27-18.46,4.9c-1.05,0.28-2.07,0.74-3.14,0.92
		c-1.35,0.23-2.75,0.21-4.11,0.41c-2.35,0.34-4.7,0.77-7.04,1.16c-5.87,0.99-11.73,2-17.6,2.95c-3.95,0.64-8.02,0.79-11.85,1.9
		c-3.61,1.05-6.97,3.05-10.42,4.68c-1.68,0.79-2.31,2.49-2.93,4.13c-1,2.63-2.02,5.25-2.88,7.93C46.6,46,45.81,48.4,45.5,50.85
		c-0.24,1.88,0.25,3.87,0.39,5.81c0.11,1.61,0.58,3.01,1.33,4.48c1.4,2.74,3.55,4.46,5.99,5.81c5.85,3.23,12.22,4.44,18.74,4.97
		c2.81,0.23,5.63,0.66,8.44,0.59c4.5-0.12,9.02-0.33,13.47-0.96c5.56-0.79,11.11-1.81,16.58-3.15c4.94-1.21,9.86-2.67,14.59-4.56
		c6-2.39,11.94-5.06,17.65-8.12c3.98-2.13,7.5-5.18,11.29-7.7c0.99-0.65,2.23-0.91,3.39-1.23c0.28-0.08,0.98,0.35,0.97,0.53
		c-0.02,0.42-0.23,0.99-0.55,1.21c-1.39,0.97-2.82,1.86-4.27,2.73c-2.9,1.74-5.76,3.57-8.74,5.12c-4.2,2.17-8.4,4.42-12.78,6.1
		c-6.59,2.52-13.27,4.91-20.06,6.71c-6.32,1.68-12.81,2.82-19.28,3.64c-5.33,0.67-10.76,0.88-16.12,0.67
		c-7.24-0.28-14.44-1.36-21.29-4.08c-3.78-1.5-7.21-3.77-9.58-7.26c-1.01-1.48-1.58-3.47-1.81-5.31c-0.3-2.46-0.4-5.05,0.02-7.47
		c0.55-3.13,1.64-6.16,2.6-9.19c0.6-1.9,1.4-3.73,2.11-5.59C48.43,34.42,48.27,34.26,48.12,34.09z M48.62,26.39
		c1.11-0.06,1.87-0.18,2.63-0.13c1.56,0.12,2.54-0.71,3.21-2.06c0.62-1.24,1.27-2.47,1.78-3.75c0.4-1.02,0.78-2.11,0.87-3.19
		c0.16-1.88-0.48-2.37-2.27-1.9c-1.05,0.28-2.08,0.66-3.08,1.09c-2.74,1.2-5.51,2.46-7.39,4.98c-0.61,0.81-0.89,2.21-0.73,3.23
		c0.1,0.62,1.28,1.27,2.08,1.5C46.75,26.46,47.88,26.35,48.62,26.39z"/>
	<path class="st0" d="M193.17,39.28c-0.13,0.21-0.21,0.47-0.38,0.63c-2.22,2.07-4.51,4.06-6.63,6.24c-0.55,0.56-0.77,1.71-0.74,2.57
		c0.01,0.39,0.97,0.91,1.58,1.07c4.08,1.09,6.04,0.02,8.06-4.1c0.3-0.61,1.1-1.16,1.75-1.31c2.48-0.56,4.98-1.26,7.49-1.34
		c5.95-0.19,11.9-0.13,17.85-0.03c8.49,0.15,16.98,0.5,25.48,0.65c9.49,0.17,18.98,0.2,28.47,0.3c0.38,0,0.8-0.1,1.14,0.03
		c0.61,0.25,1.17,0.63,1.75,0.96c-0.36,0.5-0.62,1.2-1.1,1.48c-3.67,2.12-7.38,4.19-11.09,6.23c-5.25,2.87-10.56,5.65-15.78,8.57
		c-2.88,1.61-5.64,3.44-8.32,5.49c1.77-0.87,3.54-1.77,5.32-2.62c3.62-1.73,7.27-3.36,10.85-5.16c3.44-1.73,6.79-3.65,10.2-5.43
		c3.42-1.78,6.9-3.45,10.32-5.25c5.27-2.77,10.86-4.42,16.66-5.23c2.76-0.38,5.58-0.27,7.9,1.68c0.79,0.66,1.65,1.66,1.78,2.61
		c0.1,0.78-0.71,1.85-1.36,2.53c-0.53,0.56-1.43,0.71-2.15,1.08c-0.37,0.19-0.72,0.45-1.07,0.68c0.04,0.14,0.08,0.28,0.12,0.43
		c1.26,0.17,2.51,0.48,3.77,0.49c5.6,0.06,11.21,0.31,16.79-0.05c4.81-0.31,9.45-1.78,13.81-4.09c3.06-1.62,2.83-1.25,5.4,1.03
		c1.6,1.42,4.08,1.87,6.24,2.4c1.4,0.35,2.93,0.07,4.41,0.07c1.66,0,2.75-1.07,3.3-2.48c0.54-1.38-0.49-2.46-1.62-2.85
		c-1.74-0.6-3.58-0.83-5.38-1.24c-1.04-0.24-2.07-0.54-3.11-0.82c0.01-0.27,0.02-0.54,0.03-0.8c0.89-0.14,1.85-0.58,2.65-0.37
		c2.55,0.69,5.06,1.56,7.55,2.48c1.27,0.47,2.36,1.61,2.12,2.96c-0.2,1.13-1.13,2.34-2.05,3.07c-2.17,1.74-4.87,1.71-7.36,1.29
		c-2.62-0.45-5.14-1.54-7.7-2.36c-0.1-0.03-0.21-0.11-0.26-0.2c-1.48-2.46-3.22-1.17-5-0.46c-4.67,1.86-9.45,3.4-14.48,3.43
		c-6.24,0.03-12.51,0.16-18.71-0.46c-3.96-0.39-7.89-0.51-11.84-0.57c-2.68-0.04-5.16-0.96-6.21-2.31c1.02-1.43,2.47-1.19,3.82-0.94
		c2.72,0.49,5.4,1.22,8.12,1.64c2.52,0.39,4.96-0.24,7.21-1.48c1.14-0.62,1.24-2.61,0.23-3.68c-1.31-1.38-3-1.9-4.75-1.76
		c-4.82,0.38-9.6,1.16-14.03,3.32c-7.23,3.52-14.41,7.14-21.58,10.77c-6.5,3.29-12.94,6.69-19.44,9.98
		c-7.04,3.56-14.1,7.08-21.18,10.54c-0.83,0.41-1.87,0.37-2.81,0.53c-0.07-0.21-0.14-0.42-0.21-0.63c0.44-0.4,0.84-0.9,1.34-1.19
		c4.67-2.71,9.37-5.39,14.06-8.08c4.91-2.82,9.81-5.67,14.75-8.43c5.43-3.04,10.89-5.99,16.34-8.98c3.38-1.85,6.77-3.69,10.14-5.56
		c0.33-0.18,0.6-0.51,0.9-0.76c-0.04-0.15-0.07-0.29-0.11-0.44c-0.55-0.03-1.1-0.1-1.65-0.1c-7.7-0.01-15.4,0.03-23.1-0.03
		c-6.7-0.06-13.41-0.21-20.11-0.36c-8.06-0.19-16.11-0.49-24.17-0.6c-2.43-0.03-4.85,0.45-7.29,0.63c-1.62,0.12-2.75,0.89-3.61,2.33
		c-2.55,4.25-8.08,5.77-12.09,3.17c-1.99-1.29-2.02-2.15-0.1-4.44c1.85-2.2,3.96-4.19,6.08-6.12c0.62-0.57,1.66-0.62,2.51-0.91
		C193,38.87,193.09,39.08,193.17,39.28z"/>
</g>
</svg>
