<?xml version="1.0" standalone="no"?>
<!DOCTYPE svg PUBLIC "-//W3C//DTD SVG 20010904//EN"
 "http://www.w3.org/TR/2001/REC-SVG-20010904/DTD/svg10.dtd">
<svg version="1.0" xmlns="http://www.w3.org/2000/svg"
 width="880.000000pt" height="880.000000pt" viewBox="0 0 880.000000 880.000000"
 preserveAspectRatio="xMidYMid meet">
<metadata>
Created by potrace 1.16, written by Peter Selinger 2001-2019
</metadata>
<g transform="translate(0.000000,880.000000) scale(0.100000,-0.100000)"
fill="#000000" stroke="none">
<path d="M2330 8783 c-189 -20 -410 -69 -595 -133 -243 -84 -548 -253 -765
-424 -103 -81 -341 -322 -422 -427 -111 -143 -206 -295 -288 -464 -114 -232
-178 -429 -232 -708 l-22 -112 -4 -2050 c-2 -1443 0 -2083 8 -2160 47 -473
249 -962 554 -1344 228 -285 549 -543 879 -705 224 -110 393 -169 647 -224
l125 -27 2185 0 2185 0 125 27 c252 55 421 113 645 222 239 118 454 268 653
460 428 413 707 968 777 1551 14 115 15 367 12 2190 l-3 2060 -22 112 c-54
280 -119 478 -232 708 -137 278 -273 468 -495 691 -158 158 -235 222 -415 343
-282 189 -612 319 -993 393 l-112 22 -2080 2 c-1144 0 -2096 -1 -2115 -3z
m3982 -803 c256 -17 461 -70 683 -179 361 -178 638 -454 816 -816 108 -221
163 -432 179 -690 12 -196 12 -3614 0 -3810 -16 -258 -71 -469 -179 -690 -177
-361 -455 -639 -816 -816 -222 -109 -427 -162 -683 -179 -84 -6 -903 -10
-1912 -10 -1009 0 -1828 4 -1912 10 -253 16 -464 72 -683 179 -361 178 -639
455 -816 816 -108 221 -163 432 -179 690 -12 196 -12 3613 0 3811 16 259 69
465 179 689 282 574 846 954 1476 994 177 12 3672 12 3847 1z"/>
<path d="M6649 7102 c-102 -34 -167 -91 -219 -192 -35 -67 -40 -213 -10 -292
28 -76 104 -159 178 -195 79 -38 211 -45 294 -14 252 96 319 429 122 611 -96
89 -244 122 -365 82z"/>
<path d="M4085 6774 c-804 -109 -1504 -618 -1855 -1349 -94 -197 -161 -407
-202 -632 -20 -113 -23 -159 -23 -403 0 -244 3 -290 23 -403 89 -491 304 -912
647 -1266 389 -401 871 -644 1418 -716 155 -20 459 -20 614 0 752 99 1407 541
1786 1205 152 266 251 562 292 873 20 155 20 459 0 614 -54 412 -210 794 -461
1133 -100 135 -349 384 -484 484 -339 252 -720 406 -1133 461 -146 19 -481 19
-622 -1z m585 -814 c571 -93 1056 -509 1241 -1062 63 -187 74 -261 74 -508 0
-195 -3 -238 -22 -323 -73 -323 -211 -576 -437 -803 -307 -306 -688 -464
-1121 -465 -165 0 -250 10 -400 47 -279 69 -517 206 -731 419 -226 225 -364
479 -437 802 -19 85 -22 128 -22 323 0 195 3 238 22 323 73 323 211 576 437
803 372 371 872 530 1396 444z"/>
</g>
</svg>
