<?xml version="1.0" standalone="no"?>
<!DOCTYPE svg PUBLIC "-//W3C//DTD SVG 20010904//EN"
 "http://www.w3.org/TR/2001/REC-SVG-20010904/DTD/svg10.dtd">
<svg version="1.0" xmlns="http://www.w3.org/2000/svg"
 width="998.000000pt" height="998.000000pt" viewBox="0 0 998.000000 998.000000"
 preserveAspectRatio="xMidYMid meet">
<metadata>
Created by potrace 1.16, written by Peter Selinger 2001-2019
</metadata>
<g transform="translate(0.000000,998.000000) scale(0.100000,-0.100000)"
fill="#000000" stroke="none">
<path d="M4350 9965 c-586 -82 -1154 -270 -1635 -543 -140 -79 -389 -248 -521
-353 -151 -119 -446 -411 -559 -554 -317 -397 -553 -894 -649 -1367 -55 -272
-61 -340 -61 -698 1 -355 11 -465 66 -715 140 -632 484 -1167 889 -1383 152
-81 302 -105 371 -59 91 61 187 290 228 547 16 97 13 169 -8 217 -11 23 -63
115 -117 205 -270 452 -355 771 -325 1223 35 520 175 952 438 1348 570 859
1592 1300 2712 1171 919 -106 1584 -601 1839 -1369 85 -256 116 -465 116 -790
-1 -915 -268 -1864 -680 -2411 -143 -189 -340 -362 -517 -451 -515 -259 -1081
-151 -1353 259 -95 142 -134 284 -134 488 0 270 45 483 215 1020 210 668 244
817 252 1135 4 152 2 208 -11 279 -59 309 -226 515 -491 603 -72 24 -94 27
-230 27 -135 -1 -159 -3 -240 -28 -358 -109 -633 -392 -761 -783 -62 -190 -78
-307 -78 -568 0 -239 11 -380 45 -550 24 -121 70 -276 110 -367 l29 -66 -139
-584 c-281 -1176 -391 -1687 -490 -2268 -97 -569 -131 -888 -138 -1300 -6
-340 -2 -410 48 -910 31 -302 33 -316 57 -342 28 -31 43 -33 90 -17 69 24 480
649 655 997 219 433 302 698 527 1687 102 447 200 858 205 853 2 -2 26 -37 53
-78 106 -158 322 -335 534 -435 299 -141 617 -200 963 -176 526 36 953 178
1354 451 772 527 1302 1507 1466 2710 43 317 59 795 35 1041 -61 626 -288
1178 -684 1662 -510 625 -1281 1058 -2177 1224 -143 26 -148 26 -674 29 -398
2 -554 -1 -625 -11z"/>
</g>
</svg>
